# xmcd CD database file
#
# Track frame offsets:
#	182
#	10230
#	20267
#	31680
#	42685
#	56557
#	68405
#	81850
#	94525
#	107585
#	122807
#	132865
#	141907
#	152137
#	163667
#	174100
#	186850
#	199750
#	211675
#	222920
#	234860
#
# Disc length: 3284 seconds
#
# Revision: 0
# Processed by: cddbd v1.4PL0 Copyright (c) Steve Scherf et al.
# Submitted via: CDex 1.40Beta9
#
DISCID=0f0cd215
DTITLE=Patsy Cline - Sentimentally Yours
DYEAR=1900
DGENRE=Country
TTITLE0=Heartaches
TTITLE1=Have You Ever Been Lonely? (Have You Ever Been Blue?)
TTITLE2=I'll Sail My Ship Alone
TTITLE3=Lover Letters In The Sand
TTITLE4=You Belong To Me
TTITLE5=Sweet Dreams
TTITLE6=I Can't Help It (If I'm Still In Love With You)
TTITLE7=You Made Me Love You
TTITLE8=Tou're Stronger Than Me
TTITLE9=The Wayward Wind
TTITLE10=Seven Lonely Days
TTITLE11=Anytime
TTITLE12=Strange
TTITLE13=Crazy Dreams
TTITLE14=How Can I Face Tomorrow
TTITLE15=Just A Closer Walk With Thee
TTITLE16=Yes, I Understand
TTITLE17=If I Could Only Stay Asleep
TTITLE18=Don't Ever Leave Me Again
TTITLE19=Today, Tomorrow And Forever
TTITLE20=The Heart You Break May Be Your Own
EXTD=ID3G: 2
EXTT0=
EXTT1=
EXTT2=
EXTT3=
EXTT4=
EXTT5=
EXTT6=
EXTT7=
EXTT8=
EXTT9=
EXTT10=
EXTT11=
EXTT12=
EXTT13=
EXTT14=
EXTT15=
EXTT16=
EXTT17=
EXTT18=
EXTT19=
EXTT20=
PLAYORDER=
